<svg width="48" height="48" viewBox="0 0 48 48" fill="none" xmlns="http://www.w3.org/2000/svg">
<mask id="mask0_702_3390" style="mask-type:alpha" maskUnits="userSpaceOnUse" x="0" y="0" width="48" height="48">
<circle cx="24" cy="24" r="24" fill="#D9D9D9"/>
</mask>
<g mask="url(#mask0_702_3390)">
<circle cx="24" cy="24" r="24" fill="#23351D"/>
</g>
<path d="M40.52 12.3944C40.4429 12.3944 40.4198 12.4175 40.2656 12.5717C39.7337 13.1113 38.6237 14.3215 35.8179 14.3215C34.5306 14.3215 33.1971 14.1982 31.7016 14.0363L31.1466 13.9823C29.0268 13.7511 26.5525 13.4967 23.3458 13.4967C19.1062 13.4967 13.2248 16.1946 13.2248 22.053V22.1532C12.7237 22.2534 12.215 22.3073 11.6831 22.3073C9.76372 22.3073 8.80789 21.4594 8.80789 20.0488C8.80789 18.4532 9.64039 17.8365 9.64039 17.6823C9.64039 17.6052 9.58643 17.5513 9.51705 17.5513C9.36289 17.5513 7.7981 18.9388 7.7981 20.3032C7.7981 21.9682 9.61726 22.6927 11.4827 22.6927C12.1148 22.6927 12.6929 22.6388 13.2479 22.5386C13.5254 24.2344 15.1441 25.9534 17.1637 25.9534C20.2702 25.9534 23.3766 22.4846 23.3766 21.02C23.3766 19.9409 22.1896 18.6844 21.28 18.6844C19.5918 18.6844 17.3641 20.7657 14.566 21.7677C15.1441 16.7342 19.9387 13.9823 24.4404 13.9823C26.6681 13.9823 28.4873 14.4063 30.1214 14.8534C27.5777 16.133 25.2806 19.463 23.0452 22.608L22.8448 22.9009C21.9198 24.2113 20.9485 25.4986 19.9079 26.5546L19.1987 27.2561C19.0908 27.3486 18.9906 27.4411 18.8904 27.5259C17.9654 27.1019 17.025 26.8244 16.0614 26.8244C13.9879 26.8244 12.2073 27.9267 12.2073 29.7459C12.2073 31.1488 13.3327 32.3205 15.5141 32.3205C17.526 32.3205 19.3221 31.3877 20.9948 30.0311C23.261 31.8271 25.481 34.1165 28.1481 34.1165C30.7689 34.1165 32.7037 31.8888 32.7037 31.804C32.7037 31.7192 32.6575 31.6344 32.5573 31.6344C32.4108 31.6344 31.6477 32.8909 28.9189 32.8909C26.4831 32.8909 24.2014 30.879 21.8504 29.2757C23.1839 28.0269 24.4327 26.5084 25.6352 24.9744L25.8896 24.6738C28.8958 20.8042 31.8635 16.9732 34.7387 16.9346C35.2706 16.9346 35.6714 17.2584 35.6714 17.8211L36.1185 17.7363C36.1185 16.8498 35.4633 15.9865 34.2762 15.9865C34.176 15.9865 34.0758 15.9942 33.9756 15.9942C33.8368 16.0019 33.6981 16.0173 33.5593 16.0405C30.1985 16.5723 27.2385 20.7348 24.3941 24.6352L24.186 24.9359C23.1916 26.3002 22.151 27.6415 21.0333 28.7438C20.6016 28.4663 20.17 28.1965 19.7306 27.9575C19.7923 27.9113 19.8462 27.8573 19.9079 27.8111L20.6941 27.0865C21.9352 25.884 23.0991 24.4348 24.2168 22.9548L24.4558 22.6619C26.9841 19.3011 29.4893 15.9711 31.9252 15.339C32.4416 15.47 32.9581 15.5857 33.4746 15.6782C33.6364 15.709 33.7983 15.7321 33.9602 15.7475C34.3918 15.8092 34.8389 15.84 35.286 15.84C38.1381 15.84 40.0112 13.5815 40.5354 12.8569C40.6125 12.7567 40.6896 12.6257 40.6896 12.5717C40.6741 12.4638 40.5739 12.3944 40.52 12.3944ZM21.6114 19.4013C22.2898 19.4013 22.6212 19.7405 22.6212 20.3802C22.6212 22.2302 19.5687 25.5448 16.9402 25.5448C15.5296 25.5448 14.5198 24.3886 14.5198 22.793C14.5198 22.6157 14.5198 22.4075 14.5429 22.2302C17.4952 21.3052 19.5918 19.4013 21.6114 19.4013ZM20.2471 29.4607C18.6977 30.8019 17.0096 31.7115 15.0362 31.7115C13.5716 31.7115 12.6466 30.8482 12.6466 29.53C12.6466 28.1271 14.3193 27.3486 15.3985 27.3486C16.3621 27.3486 17.2716 27.6415 18.1504 28.0963C18.4125 28.235 18.6668 28.3815 18.9212 28.5434C19.3683 28.8209 19.8077 29.1369 20.2471 29.4607Z" fill="#E5D9B9"/>
</svg>
