<svg width="37" height="37" viewBox="0 0 37 37" fill="none" xmlns="http://www.w3.org/2000/svg">
<path d="M35.52 8.39453C35.4429 8.39453 35.4198 8.41766 35.2656 8.57182C34.7337 9.11141 33.6237 10.3216 30.8179 10.3216C29.5306 10.3216 28.1971 10.1983 26.7016 10.0364L26.1466 9.98245C24.0268 9.7512 21.5525 9.49682 18.3458 9.49682C14.1062 9.49682 8.22476 12.1947 8.22476 18.0531V18.1533C7.72372 18.2535 7.21497 18.3074 6.6831 18.3074C4.76372 18.3074 3.80789 17.4595 3.80789 16.0489C3.80789 14.4533 4.64039 13.8366 4.64039 13.6824C4.64039 13.6054 4.58643 13.5514 4.51705 13.5514C4.36289 13.5514 2.7981 14.9389 2.7981 16.3033C2.7981 17.9683 4.61726 18.6929 6.48268 18.6929C7.11476 18.6929 7.69289 18.6389 8.24789 18.5387C8.52539 20.2345 10.1441 21.9535 12.1637 21.9535C15.2702 21.9535 18.3766 18.4847 18.3766 17.0202C18.3766 15.941 17.1896 14.6845 16.28 14.6845C14.5918 14.6845 12.3641 16.7658 9.56601 17.7679C10.1441 12.7343 14.9387 9.98245 19.4404 9.98245C21.6681 9.98245 23.4873 10.4064 25.1214 10.8535C22.5777 12.1331 20.2806 15.4631 18.0452 18.6081L17.8448 18.901C16.9198 20.2114 15.9485 21.4987 14.9079 22.5547L14.1987 23.2562C14.0908 23.3487 13.9906 23.4412 13.8904 23.526C12.9654 23.102 12.025 22.8245 11.0614 22.8245C8.98789 22.8245 7.20726 23.9268 7.20726 25.746C7.20726 27.1489 8.33268 28.3206 10.5141 28.3206C12.526 28.3206 14.3221 27.3879 15.9948 26.0312C18.261 27.8272 20.481 30.1166 23.1481 30.1166C25.7689 30.1166 27.7037 27.8889 27.7037 27.8041C27.7037 27.7193 27.6575 27.6345 27.5573 27.6345C27.4108 27.6345 26.6477 28.891 23.9189 28.891C21.4831 28.891 19.2014 26.8791 16.8504 25.2758C18.1839 24.027 19.4327 22.5085 20.6352 20.9745L20.8896 20.6739C23.8958 16.8043 26.8635 12.9733 29.7387 12.9347C30.2706 12.9347 30.6714 13.2585 30.6714 13.8212L31.1185 13.7364C31.1185 12.8499 30.4633 11.9866 29.2762 11.9866C29.176 11.9866 29.0758 11.9943 28.9756 11.9943C28.8368 12.002 28.6981 12.0174 28.5593 12.0406C25.1985 12.5724 22.2385 16.7349 19.3941 20.6354L19.186 20.936C18.1916 22.3004 17.151 23.6416 16.0333 24.7439C15.6016 24.4664 15.17 24.1966 14.7306 23.9577C14.7923 23.9114 14.8462 23.8574 14.9079 23.8112L15.6941 23.0866C16.9352 21.8841 18.0991 20.4349 19.2168 18.9549L19.4558 18.662C21.9841 15.3012 24.4893 11.9712 26.9252 11.3391C27.4416 11.4702 27.9581 11.5858 28.4746 11.6783C28.6364 11.7091 28.7983 11.7322 28.9602 11.7477C29.3918 11.8093 29.8389 11.8402 30.286 11.8402C33.1381 11.8402 35.0112 9.58161 35.5354 8.85703C35.6125 8.75682 35.6896 8.62578 35.6896 8.57182C35.6741 8.46391 35.5739 8.39453 35.52 8.39453ZM16.6114 15.4014C17.2898 15.4014 17.6212 15.7406 17.6212 16.3804C17.6212 18.2304 14.5687 21.5449 11.9402 21.5449C10.5296 21.5449 9.51976 20.3887 9.51976 18.7931C9.51976 18.6158 9.51976 18.4077 9.54289 18.2304C12.4952 17.3054 14.5918 15.4014 16.6114 15.4014ZM15.2471 25.4608C13.6977 26.802 12.0096 27.7116 10.0362 27.7116C8.57164 27.7116 7.64664 26.8483 7.64664 25.5302C7.64664 24.1272 9.31934 23.3487 10.3985 23.3487C11.3621 23.3487 12.2716 23.6416 13.1504 24.0964C13.4125 24.2352 13.6668 24.3816 13.9212 24.5435C14.3683 24.821 14.8077 25.137 15.2471 25.4608Z" fill="#25351E"/>
</svg>
